<svg width="20" height="20" viewBox="0 0 20 20" fill="none" xmlns="http://www.w3.org/2000/svg">
<path d="M10.6332 18C8.59202 18 6.74443 17.0502 5.82943 15.5271C5.72385 15.3634 5.42472 14.9376 5.09039 14.4463C4.08741 12.9887 3.48915 12.1044 3.38357 11.9079C3.17241 11.5476 2.94366 11.2528 2.73251 11.089C2.45097 10.8762 2.27501 10.5977 2.11665 10.3521C1.97588 10.1228 1.92309 9.58239 2.18703 9.17298C2.38059 8.86182 2.73251 8.68168 3.11963 8.68168C3.6827 8.68168 4.31616 8.8782 4.80886 9.18935C5.14318 9.40225 5.56549 9.72978 5.9878 10.2538V5.24258C5.9878 4.4565 6.67405 3.80143 7.53626 3.80143C7.88818 3.80143 8.22251 3.91607 8.46885 4.09621V3.44115C8.46885 2.65507 9.1551 2 10.0173 2C10.8619 2 11.5658 2.63869 11.5658 3.44115V3.52303C11.7945 3.35926 12.0761 3.27738 12.3752 3.27738C13.1494 3.27738 13.7829 3.86694 13.7829 4.58751V5.4391C14.0116 5.29171 14.2932 5.20983 14.5923 5.20983C15.3665 5.20983 16 5.79939 16 6.51996V13.5455C15.7009 17.4923 12.9735 18 10.6332 18ZM2.89088 9.95906C2.99645 10.1228 3.10203 10.303 3.27799 10.434C3.59472 10.6633 3.89386 11.0399 4.1578 11.5148C4.26338 11.7114 5.28395 13.2016 5.82943 14.0041C6.18135 14.5118 6.46289 14.9376 6.56847 15.1013L6.58607 15.1177C7.3427 16.3951 8.89116 17.1812 10.6332 17.1812C12.8151 17.1812 14.8562 16.739 15.1026 13.4964V6.51996C15.1026 6.24156 14.8738 6.02866 14.5747 6.02866C14.2756 6.02866 14.0468 6.24156 14.0468 6.51996V9.72978C14.0468 10.0246 13.7829 10.2702 13.4662 10.2702C13.1494 10.2702 12.8855 10.0246 12.8855 9.72978V4.58751C12.8855 4.30911 12.6567 4.09621 12.3576 4.09621C12.0585 4.09621 11.8297 4.30911 11.8297 4.58751V9.20573C11.8297 9.50051 11.5658 9.74616 11.249 9.74616C10.9323 9.74616 10.6684 9.50051 10.6684 9.20573V3.42477C10.6684 3.08086 10.3692 2.80246 9.99972 2.80246C9.6302 2.80246 9.33106 3.08086 9.33106 3.42477V9.20573C9.33106 9.50051 9.06712 9.74616 8.75039 9.74616C8.43366 9.74616 8.16972 9.50051 8.16972 9.20573V5.2262C8.16972 4.88229 7.87058 4.60389 7.50106 4.60389C7.13155 4.60389 6.8852 4.88229 6.8852 5.2262V10.9089C6.8852 11.0235 6.8852 11.1054 6.8852 11.1873V11.7932L6.37491 11.7114C6.07578 11.6622 5.81184 11.4985 5.65347 11.2364C5.21357 10.5159 4.68568 10.0901 4.33376 9.8608C3.98184 9.63152 3.50674 9.48413 3.13722 9.48413C3.01405 9.48413 2.97886 9.53326 2.94366 9.56602C2.85568 9.69703 2.87328 9.89355 2.89088 9.95906Z" fill="white"/>
</svg>
